<svg xmlns="http://www.w3.org/2000/svg" width="1200" height="630" viewBox="0 0 1200 630">
  <defs>
    <linearGradient id="bg" x1="0%" y1="0%" x2="100%" y2="100%">
      <stop offset="0%" style="stop-color:#087EBB;stop-opacity:1" />
      <stop offset="100%" style="stop-color:#FF5A5F;stop-opacity:1" />
    </linearGradient>
    <linearGradient id="overlay" x1="0%" y1="0%" x2="100%" y2="0%">
      <stop offset="0%" style="stop-color:#087EBB;stop-opacity:0.85" />
      <stop offset="100%" style="stop-color:#FF5A5F;stop-opacity:0.85" />
    </linearGradient>
  </defs>
  <rect width="1200" height="630" fill="url(#bg)" />
  <rect width="1200" height="630" fill="url(#overlay)" />
  <g transform="translate(60, 40)">
    <path d="M8 14.5C8 14.5 1 10 1 5.5C1 3 3 1 5.5 1C6.8 1 7.6 1.8 8 2.3C8.4 1.8 9.2 1 10.5 1C13 1 15 3 15 5.5C15 10 8 14.5 8 14.5Z" fill="#FFFFFF" transform="scale(1.8)" />
    <text x="42" y="32" fontFamily="'DM Sans', 'Helvetica Neue', sans-serif" font-weight="700" font-size="28" letter-spacing="4" fill="#FFFFFF">ETERNAL FITNESS</text>
    <line x1="0" y1="44" x2="400" y2="44" stroke="#FFFFFF" stroke-width="2" opacity="0.3" />
  </g>
  <g transform="translate(60, 280)">
    <text fontFamily="'DM Sans', 'Helvetica Neue', sans-serif" font-weight="800" font-size="52" fill="#FFFFFF">
      <tspan x="0" dy="0">Level 4 Personal Training</tspan>
      <tspan x="0" dy="60">for Health Conditions</tspan>
      <tspan x="0" dy="60">in Worthing</tspan>
    </text>
    <text fontFamily="'DM Sans', 'Helvetica Neue', sans-serif" font-weight="400" font-size="22" fill="#FFFFFF" opacity="0.85">
      <tspan x="0" dy="40">Cancer Rehabilitation · Exercise Referral · Adaptive Training</tspan>
      <tspan x="0" dy="34">Private 1:1 Studio · Level 4 Qualified · Esther Fair</tspan>
    </text>
  </g>
  <g transform="translate(740, 420)">
    <rect x="0" y="0" width="400" height="150" rx="12" fill="#FFFFFF" opacity="0.12" />
    <text fontFamily="'DM Sans', 'Helvetica Neue', sans-serif" font-weight="600" font-size="20" fill="#FFFFFF" opacity="0.9">
      <tspan x="30" y="38">eternal-fitness.co.uk</tspan>
    </text>
    <text fontFamily="'DM Sans', 'Helvetica Neue', sans-serif" font-weight="400" font-size="16" fill="#FFFFFF" opacity="0.7">
      <tspan x="30" y="66">Free Consultation: 07517 658 128</tspan>
    </text>
    <line x1="30" y1="82" x2="370" y2="82" stroke="#FFFFFF" stroke-width="1" opacity="0.2" />
    <text fontFamily="'DM Sans', 'Helvetica Neue', sans-serif" font-weight="500" font-size="14" fill="#FFFFFF" opacity="0.6">
      <tspan x="30" y="108">Worthing, West Sussex</tspan>
    </text>
  </g>
</svg>
